<?xml version="1.0" encoding="UTF-8"?>
<!DOCTYPE svg PUBLIC "-//W3C//DTD SVG 1.1//EN" "http://www.w3.org/Graphics/SVG/1.1/DTD/svg11.dtd">
<!-- Creator: CorelDRAW Home & Student X6 -->
<svg xmlns="http://www.w3.org/2000/svg" xml:space="preserve" width="148mm" height="210mm" version="1.1" style="shape-rendering:geometricPrecision; text-rendering:geometricPrecision; image-rendering:optimizeQuality; fill-rule:evenodd; clip-rule:evenodd"
viewBox="0 0 14800 21000"
 xmlns:xlink="http://www.w3.org/1999/xlink">
 <defs>
  <style type="text/css">
   <![CDATA[
    .str0 {stroke:#F58F35;stroke-width:154.59}
    .fil1 {fill:none;fill-rule:nonzero}
    .fil2 {fill:black;fill-rule:nonzero}
    .fil0 {fill:#F58F35;fill-rule:nonzero}
   ]]>
  </style>
 </defs>
 <g id="Warstwa_x0020_1">
  <metadata id="CorelCorpID_0Corel-Layer"/>
  <g id="_222977520">
   <polygon class="fil0" points="5927,2596 5203,3338 5348,4781 5936,2598 5928,2596 "/>
   <polygon class="fil1 str0" points="5203,3338 5203,3336 3745,3207 5941,2579 5936,2598 5348,4781 "/>
   <polyline class="fil1 str0" points="5198,3344 5203,3338 5927,2596 "/>
   <path class="fil2" d="M6483 5704c-30,0 -52,12 -69,32 -12,-20 -33,-32 -59,-32 -26,0 -43,9 -58,25l0 -20 -25 0 0 172 25 0 0 -123c14,-21 33,-31 53,-31 30,0 49,20 49,56l0 98 25 0 0 -99c0,-8 -1,-15 -2,-22 14,-23 34,-33 55,-33 31,0 49,20 49,56l0 98 25 0 0 -99c0,-48 -29,-78 -70,-78zm208 1c-52,0 -91,39 -91,90 0,52 40,91 91,91 51,0 91,-40 91,-91 0,-51 -40,-90 -91,-90zm0 159c-38,0 -66,-30 -66,-68 0,-37 28,-67 66,-67 38,0 66,30 66,67 0,38 -28,68 -66,68zm312 -246l-25 0 0 111c-16,-15 -36,-23 -62,-23 -49,0 -89,40 -89,90 0,50 40,90 89,90 26,0 46,-9 62,-23l0 19 25 0 0 -264zm-84 246c-38,0 -67,-31 -67,-68 0,-37 29,-68 67,-68 23,0 44,10 59,32l0 74c-14,21 -35,31 -59,31zm311 -69c0,-52 -35,-90 -84,-90 -52,0 -89,40 -89,90 0,51 37,91 89,91 38,0 68,-19 78,-48l-28 0c-8,16 -26,26 -50,26 -37,0 -61,-26 -64,-59l145 0 0 -1 1 1c0,-3 0,-7 0,-11zm-84 -68c34,0 56,24 59,59l-122 0c4,-32 27,-59 63,-59zm163 -110l-25 0 0 264 25 0 0 -264zm230 92l-25 0 0 19c-16,-15 -36,-24 -62,-24 -49,0 -89,40 -89,90 0,51 40,91 89,91 26,0 46,-9 62,-24l0 19 25 0 0 -172zm-84 154c-38,0 -67,-31 -67,-68 0,-37 29,-68 67,-68 23,0 44,10 59,31l0 74c-14,21 -35,31 -59,31zm172 -154l-25 0 0 172 25 0 0 -112c15,-25 39,-39 67,-40l0 -24c-28,0 -51,13 -67,34l0 -30zm197 -6c-25,0 -48,10 -64,26l0 -20 -25 0 0 172 25 0 0 -122c15,-20 37,-32 59,-32 31,0 52,20 52,56l0 98 25 0 0 -99c0,-48 -30,-78 -73,-78zm146 -42c10,0 18,-7 18,-17 0,-10 -8,-17 -18,-17 -10,0 -17,7 -17,17 0,10 8,17 17,17zm13 48l-25 0 0 172 25 0 0 -172zm235 0l-25 0 0 19c-16,-15 -36,-24 -62,-24 -49,0 -89,40 -89,90 0,51 40,91 89,91 26,0 46,-9 62,-24l0 19 25 0 0 -172zm-84 154c-38,0 -67,-31 -67,-68 0,-37 29,-68 67,-68 23,0 44,10 59,31l0 74c-14,21 -35,31 -59,31zm273 -246l-25 0 0 264 25 0 0 -264zm145 88c-52,0 -91,39 -91,90 0,52 40,91 91,91 51,0 91,-40 91,-91 0,-51 -40,-90 -91,-90zm0 159c-38,0 -66,-30 -66,-68 0,-37 28,-67 66,-67 38,0 66,30 66,67 0,38 -28,68 -66,68zm253 -5c-9,3 -20,4 -29,4 -26,0 -38,-13 -38,-44l0 -88 65 0 0 -22 -65 0 0 -64 -25 0 0 64 -46 0 0 22 46 0 0 88c0,45 20,67 59,67 12,0 22,-1 37,-6l-4 -22zm141 -155c-25,0 -48,10 -64,26l0 -20 -25 0 0 172 25 0 0 -122c15,-20 37,-32 59,-32 31,0 52,20 52,56l0 98 25 0 0 -99c0,-48 -30,-78 -73,-78zm146 -42c10,0 18,-7 18,-17 0,-10 -8,-17 -18,-17 -10,0 -17,7 -17,17 0,10 8,17 17,17zm13 48l-25 0 0 172 25 0 0 -172zm149 153c-39,0 -64,-30 -64,-67 0,-37 25,-67 64,-67 28,0 49,15 54,39l26 0c-7,-37 -39,-62 -81,-62 -52,0 -90,40 -90,90 0,51 38,91 90,91 41,0 74,-25 81,-62l-26 0c-6,23 -26,39 -54,39zm268 -138l0 -15 -144 0 0 22 107 0 -111 137 0 13 148 0 0 -22 -110 0 110 -135zm216 -15l-25 0 0 19c-16,-15 -36,-24 -62,-24 -49,0 -89,40 -89,90 0,51 40,91 89,91 26,0 46,-9 62,-24l0 19 25 0 0 -172zm-84 154c-38,0 -67,-31 -67,-68 0,-37 29,-68 67,-68 23,0 44,10 59,31l0 74c-14,21 -35,31 -59,31z"/>
   <path class="fil2" d="M2582 4812c13,77 77,111 169,111 78,0 126,-24 126,-62 0,-29 -27,-53 -86,-62l-179 -31c-153,-25 -259,-111 -259,-266 0,-186 159,-295 393,-295 188,0 401,73 413,306l-262 0c-5,-67 -67,-98 -149,-98 -77,0 -111,29 -111,64 0,29 22,56 91,69l166 27c166,31 275,111 275,268 0,204 -184,299 -413,299 -231,0 -419,-97 -437,-332l262 2z"/>
   <path class="fil2" d="M3631 5114l-295 0 0 -883 295 0 0 883zm-322 -1188c0,-97 77,-168 173,-168 95,0 173,71 173,168 0,95 -78,166 -173,166 -97,0 -173,-71 -173,-166z"/>
   <path class="fil2" d="M4075 4586l361 0c-16,-97 -80,-148 -175,-148 -100,0 -164,58 -186,148zm632 168l2 5 -630 0c24,80 86,142 199,142 62,0 109,-24 135,-64l291 0c-42,182 -211,297 -430,297 -290,0 -483,-193 -483,-463 0,-268 188,-461 470,-461 257,0 452,177 452,443 0,33 0,67 -6,100z"/>
   <polygon class="fil2" points="6577,5114 6282,5114 6282,3821 6577,3821 "/>
   <path class="fil2" d="M7415 4808l0 -273c-55,-64 -118,-84 -184,-84 -120,0 -208,98 -208,220 0,122 87,219 208,219 66,0 129,-18 184,-82zm295 306l-295 0 0 -49c-66,42 -146,67 -242,67 -239,0 -439,-199 -439,-461 0,-264 200,-461 439,-461 97,0 177,26 242,67l0 -47 295 0 0 883z"/>
   <path class="fil2" d="M8619 5098c-115,36 -180,44 -268,44 -213,0 -355,-157 -355,-395l0 -262 -173 0 0 -253 173 0 0 -301 295 0 0 301 301 0 0 253 -301 0 0 253c0,89 51,133 138,133 42,0 91,-9 157,-22l33 250z"/>
   <path class="fil2" d="M9379 4808l0 -273c-55,-64 -118,-84 -184,-84 -120,0 -208,98 -208,220 0,122 87,219 208,219 66,0 129,-18 184,-82zm295 306l-295 0 0 -49c-66,42 -146,67 -242,67 -239,0 -439,-199 -439,-461 0,-264 200,-461 439,-461 96,0 177,26 242,67l0 -47 295 0 0 883z"/>
  </g>
 </g>
</svg>
